{"asset":{"version":"2.0","generator":"Blockbench 4.10.4 glTF exporter"},"scenes":[{"nodes":[20],"name":"blockbench_export"}],"scene":0,"nodes":[{"rotation":[-0.08715574274765817,0,0,0.9961946980917455],"translation":[0,-0.1875,0],"name":"cuboid","mesh":0},{"translation":[0,0.46875,0.125],"name":"Neck","children":[0]},{"rotation":[0,0,0.043619387365336,0.9990482215818578],"translation":[0.015625,-0.5,0],"name":"cuboid","mesh":1},{"translation":[0.08790635665081803,-0.1921122836495195,0],"name":"LeftWrist","children":[2]},{"rotation":[0,0,0.1521233861899167,0.9883615104677607],"translation":[0.09375,-0.375,0],"name":"cuboid","mesh":2},{"translation":[0.09375,0,0],"name":"LeftArm","children":[3,4]},{"rotation":[0,0,0.08715574274765817,0.9961946980917455],"translation":[0.0625,-0.1875,0],"name":"cuboid","mesh":3},{"translation":[0.21875,0.40625,0],"name":"LeftShoulder","children":[5,6]},{"rotation":[0,0,-0.043619387365336,0.9990482215818578],"translation":[-0.015625,-0.5,0],"name":"cuboid","mesh":4},{"translation":[-0.08790635665081803,-0.1921122836495195,0],"name":"RightWrist","children":[8]},{"rotation":[0,0,-0.1521233861899167,0.9883615104677607],"translation":[-0.09375,-0.375,0],"name":"cuboid","mesh":5},{"translation":[-0.09375,0,0],"name":"RightArm","children":[9,10]},{"rotation":[0,0,-0.08715574274765817,0.9961946980917455],"translation":[-0.0625,-0.1875,0],"name":"cuboid","mesh":6},{"translation":[-0.21875,0.40625,0],"name":"RightShoulder","children":[11,12]},{"name":"cuboid","mesh":7},{"translation":[0,0.21875,-0.0625],"name":"upperTorso","children":[1,7,13,14]},{"translation":[0,0.5,-0.0625],"name":"cuboid_selection","mesh":8},{"translation":[0.15625,0.6875,0.0625],"name":"Torso","children":[15,16]},{"translation":[-0.15625,0.0625,0],"name":"Hip","children":[17]},{"name":"root","children":[18]},{"children":[19]}],"bufferViews":[{"buffer":0,"byteOffset":0,"byteLength":768,"target":34962,"byteStride":12},{"buffer":0,"byteOffset":768,"byteLength":768,"target":34962,"byteStride":12},{"buffer":0,"byteOffset":1536,"byteLength":512,"target":34962,"byteStride":8},{"buffer":0,"byteOffset":2048,"byteLength":192,"target":34963},{"buffer":0,"byteOffset":2240,"byteLength":1056,"target":34962,"byteStride":12},{"buffer":0,"byteOffset":3296,"byteLength":1056,"target":34962,"byteStride":12},{"buffer":0,"byteOffset":4352,"byteLength":704,"target":34962,"byteStride":8},{"buffer":0,"byteOffset":5056,"byteLength":264,"target":34963},{"buffer":0,"byteOffset":5320,"byteLength":768,"target":34962,"byteStride":12},{"buffer":0,"byteOffset":6088,"byteLength":768,"target":34962,"byteStride":12},{"buffer":0,"byteOffset":6856,"byteLength":512,"target":34962,"byteStride":8},{"buffer":0,"byteOffset":7368,"byteLength":192,"target":34963},{"buffer":0,"byteOffset":7560,"byteLength":288,"target":34962,"byteStride":12},{"buffer":0,"byteOffset":7848,"byteLength":288,"target":34962,"byteStride":12},{"buffer":0,"byteOffset":8136,"byteLength":192,"target":34962,"byteStride":8},{"buffer":0,"byteOffset":8328,"byteLength":72,"target":34963},{"buffer":0,"byteOffset":8400,"byteLength":1056,"target":34962,"byteStride":12},{"buffer":0,"byteOffset":9456,"byteLength":1056,"target":34962,"byteStride":12},{"buffer":0,"byteOffset":10512,"byteLength":704,"target":34962,"byteStride":8},{"buffer":0,"byteOffset":11216,"byteLength":264,"target":34963},{"buffer":0,"byteOffset":11480,"byteLength":768,"target":34962,"byteStride":12},{"buffer":0,"byteOffset":12248,"byteLength":768,"target":34962,"byteStride":12},{"buffer":0,"byteOffset":13016,"byteLength":512,"target":34962,"byteStride":8},{"buffer":0,"byteOffset":13528,"byteLength":192,"target":34963},{"buffer":0,"byteOffset":13720,"byteLength":288,"target":34962,"byteStride":12},{"buffer":0,"byteOffset":14008,"byteLength":288,"target":34962,"byteStride":12},{"buffer":0,"byteOffset":14296,"byteLength":192,"target":34962,"byteStride":8},{"buffer":0,"byteOffset":14488,"byteLength":72,"target":34963},{"buffer":0,"byteOffset":14560,"byteLength":2496,"target":34962,"byteStride":12},{"buffer":0,"byteOffset":17056,"byteLength":2496,"target":34962,"byteStride":12},{"buffer":0,"byteOffset":19552,"byteLength":1664,"target":34962,"byteStride":8},{"buffer":0,"byteOffset":21216,"byteLength":624,"target":34963},{"buffer":0,"byteOffset":21840,"byteLength":3072,"target":34962,"byteStride":12},{"buffer":0,"byteOffset":24912,"byteLength":3072,"target":34962,"byteStride":12},{"buffer":0,"byteOffset":27984,"byteLength":2048,"target":34962,"byteStride":8},{"buffer":0,"byteOffset":30032,"byteLength":768,"target":34963}],"buffers":[{"byteLength":30800,"uri":"data:application/octet-stream;base64,"}],"accessors":[{"bufferView":0,"componentType":5126,"count":64,"max":[0.15625,0.3654560148715973,0.12594951689243317],"min":[-0.15625,0.16438975930213928,-0.21803785860538483],"type":"VEC3"},{"bufferView":1,"componentType":5126,"count":64,"max":[1,0.9807471632957458,0.9811497926712036],"min":[-1,-0.9939026236534119,-0.9951857328414917],"type":"VEC3"},{"bufferView":2,"componentType":5126,"count":64,"max":[0.5,0.375],"min":[0,0],"type":"VEC2"},{"bufferView":3,"componentType":5123,"count":96,"max":[63],"min":[0],"type":"SCALAR"},{"bufferView":4,"componentType":5126,"count":88,"max":[0.1063721552491188,0.6017740964889526,0.125],"min":[-0.09447125345468521,0.06177682802081108,-0.125],"type":"VEC3"},{"bufferView":5,"componentType":5126,"count":88,"max":[0.9866330027580261,0.9579024910926819,0.9967475533485413],"min":[-0.9606835246086121,-0.9923595190048218,-0.9962498545646667],"type":"VEC3"},{"bufferView":6,"componentType":5126,"count":88,"max":[0.9922022223472595,0.9887540936470032],"min":[0,0],"type":"VEC2"},{"bufferView":7,"componentType":5123,"count":132,"max":[87],"min":[0],"type":"SCALAR"},{"bufferView":8,"componentType":5126,"count":64,"max":[0.1376221626996994,0.5141786336898804,0.125],"min":[-0.10298091918230057,0.046875,-0.125],"type":"VEC3"},{"bufferView":9,"componentType":5126,"count":64,"max":[0.9567304849624634,0.8839282989501953,0.9956840872764587],"min":[-0.9374070763587952,-0.9946184158325195,-0.99468594789505],"type":"VEC3"},{"bufferView":10,"componentType":5126,"count":64,"max":[0.9375,1],"min":[0,0],"type":"VEC2"},{"bufferView":11,"componentType":5123,"count":96,"max":[63],"min":[0],"type":"SCALAR"},{"bufferView":12,"componentType":5126,"count":24,"max":[0.125,0.3125,0.109375],"min":[-0.125,0.1875,-0.109375],"type":"VEC3"},{"bufferView":13,"componentType":5126,"count":24,"max":[0.9398996233940125,0.9930445551872253,1],"min":[-1,-1,-1],"type":"VEC3"},{"bufferView":14,"componentType":5126,"count":24,"max":[0.5625,0.6875],"min":[0,0],"type":"VEC2"},{"bufferView":15,"componentType":5123,"count":36,"max":[23],"min":[0],"type":"SCALAR"},{"bufferView":16,"componentType":5126,"count":88,"max":[0.09447125345468521,0.6017740964889526,0.125],"min":[-0.1063721552491188,0.06177682802081108,-0.125],"type":"VEC3"},{"bufferView":17,"componentType":5126,"count":88,"max":[0.9606835246086121,0.9579024910926819,0.9967475533485413],"min":[-0.9866330027580261,-0.9923595190048218,-0.9962498545646667],"type":"VEC3"},{"bufferView":18,"componentType":5126,"count":88,"max":[0.9922022223472595,0.9887540936470032],"min":[0,0],"type":"VEC2"},{"bufferView":19,"componentType":5123,"count":132,"max":[87],"min":[0],"type":"SCALAR"},{"bufferView":20,"componentType":5126,"count":64,"max":[0.10298091918230057,0.5141786336898804,0.125],"min":[-0.1376221626996994,0.046875,-0.125],"type":"VEC3"},{"bufferView":21,"componentType":5126,"count":64,"max":[0.9374070763587952,0.8839282989501953,0.9956840872764587],"min":[-0.9567304849624634,-0.9946184158325195,-0.99468594789505],"type":"VEC3"},{"bufferView":22,"componentType":5126,"count":64,"max":[0.9375,1],"min":[0,0],"type":"VEC2"},{"bufferView":23,"componentType":5123,"count":96,"max":[63],"min":[0],"type":"SCALAR"},{"bufferView":24,"componentType":5126,"count":24,"max":[0.125,0.3125,0.109375],"min":[-0.125,0.1875,-0.109375],"type":"VEC3"},{"bufferView":25,"componentType":5126,"count":24,"max":[1,0.9930445551872253,1],"min":[-0.9398996233940125,-1,-1],"type":"VEC3"},{"bufferView":26,"componentType":5126,"count":24,"max":[0.5625,0.6875],"min":[0,0],"type":"VEC2"},{"bufferView":27,"componentType":5123,"count":36,"max":[23],"min":[0],"type":"SCALAR"},{"bufferView":28,"componentType":5126,"count":208,"max":[0.265625,0.5,0.203125],"min":[-0.265625,0.03125,-0.203125],"type":"VEC3"},{"bufferView":29,"componentType":5126,"count":208,"max":[1,0.9952916502952576,1],"min":[-1,-1,-1],"type":"VEC3"},{"bufferView":30,"componentType":5126,"count":208,"max":[0.7734375,0.75],"min":[0,0],"type":"VEC2"},{"bufferView":31,"componentType":5123,"count":312,"max":[207],"min":[0],"type":"SCALAR"},{"bufferView":32,"componentType":5126,"count":256,"max":[0.40349727869033813,-0.1875,0.41540321707725525],"min":[-0.40349727869033813,-0.8651174306869507,-0.31523776054382324],"type":"VEC3"},{"bufferView":33,"componentType":5126,"count":256,"max":[1,1,1],"min":[-1,-1,-1],"type":"VEC3"},{"bufferView":34,"componentType":5126,"count":256,"max":[0.90625,0.9375],"min":[0,0.03125],"type":"VEC2"},{"bufferView":35,"componentType":5123,"count":384,"max":[255],"min":[0],"type":"SCALAR"}],"materials":[{"pbrMetallicRoughness":{"metallicFactor":0,"roughnessFactor":1,"baseColorTexture":{"index":0}},"alphaMode":"MASK","alphaCutoff":0.05},{"pbrMetallicRoughness":{"metallicFactor":0,"roughnessFactor":1,"baseColorTexture":{"index":1}},"alphaMode":"MASK","alphaCutoff":0.05},{"pbrMetallicRoughness":{"metallicFactor":0,"roughnessFactor":1,"baseColorTexture":{"index":2}},"alphaMode":"MASK","alphaCutoff":0.05},{"pbrMetallicRoughness":{"metallicFactor":0,"roughnessFactor":1,"baseColorTexture":{"index":3}},"alphaMode":"MASK","alphaCutoff":0.05},{"pbrMetallicRoughness":{"metallicFactor":0,"roughnessFactor":1,"baseColorTexture":{"index":4}},"alphaMode":"MASK","alphaCutoff":0.05},{"pbrMetallicRoughness":{"metallicFactor":0,"roughnessFactor":1,"baseColorTexture":{"index":5}},"alphaMode":"MASK","alphaCutoff":0.05}],"textures":[{"sampler":0,"source":0,"name":"neck.png"},{"sampler":1,"source":1,"name":"wrist.png"},{"sampler":2,"source":2,"name":"right-shoulder.png"},{"sampler":3,"source":3,"name":"shoulder.png"},{"sampler":4,"source":4,"name":"torso.png"},{"sampler":5,"source":5,"name":"torso-lower.png"}],"samplers":[{"magFilter":9728,"minFilter":9728,"wrapS":33071,"wrapT":33071},{"magFilter":9728,"minFilter":9728,"wrapS":33071,"wrapT":33071},{"magFilter":9728,"minFilter":9728,"wrapS":33071,"wrapT":33071},{"magFilter":9728,"minFilter":9728,"wrapS":33071,"wrapT":33071},{"magFilter":9728,"minFilter":9728,"wrapS":33071,"wrapT":33071},{"magFilter":9728,"minFilter":9728,"wrapS":33071,"wrapT":33071}],"images":[{"mimeType":"image/png","uri":"data:image/png;base64,"},{"mimeType":"image/png","uri":"data:image/png;base64,"},{"mimeType":"image/png","uri":"data:image/png;base64,"},{"mimeType":"image/png","uri":"data:image/png;base64,"},{"mimeType":"image/png","uri":"data:image/png;base64,"},{"mimeType":"image/png","uri":"data:image/png;base64,"}],"meshes":[{"primitives":[{"mode":4,"attributes":{"POSITION":0,"NORMAL":1,"TEXCOORD_0":2},"indices":3,"material":0}]},{"primitives":[{"mode":4,"attributes":{"POSITION":4,"NORMAL":5,"TEXCOORD_0":6},"indices":7,"material":1}]},{"primitives":[{"mode":4,"attributes":{"POSITION":8,"NORMAL":9,"TEXCOORD_0":10},"indices":11,"material":2}]},{"primitives":[{"mode":4,"attributes":{"POSITION":12,"NORMAL":13,"TEXCOORD_0":14},"indices":15,"material":3}]},{"primitives":[{"mode":4,"attributes":{"POSITION":16,"NORMAL":17,"TEXCOORD_0":18},"indices":19,"material":1}]},{"primitives":[{"mode":4,"attributes":{"POSITION":20,"NORMAL":21,"TEXCOORD_0":22},"indices":23,"material":2}]},{"primitives":[{"mode":4,"attributes":{"POSITION":24,"NORMAL":25,"TEXCOORD_0":26},"indices":27,"material":3}]},{"primitives":[{"mode":4,"attributes":{"POSITION":28,"NORMAL":29,"TEXCOORD_0":30},"indices":31,"material":4}]},{"primitives":[{"mode":4,"attributes":{"POSITION":32,"NORMAL":33,"TEXCOORD_0":34},"indices":35,"material":5}]}]}