{"asset":{"version":"2.0","generator":"Blockbench 4.10.4 glTF exporter"},"scenes":[{"nodes":[3],"name":"blockbench_export"}],"scene":0,"nodes":[{"translation":[0,0.726172649,0],"name":"bone"},{"rotation":[-0.7071067811865475,0,0,0.7071067811865476],"translation":[0,0.125,1.03125],"name":"tube","mesh":0},{"rotation":[0.7071067811865475,0,0,0.7071067811865476],"translation":[0,0.125,-0.296875],"name":"cylinder","mesh":1},{"children":[0,1,2]}],"bufferViews":[{"buffer":0,"byteOffset":0,"byteLength":1536,"target":34962,"byteStride":12},{"buffer":0,"byteOffset":1536,"byteLength":1536,"target":34962,"byteStride":12},{"buffer":0,"byteOffset":3072,"byteLength":1024,"target":34962,"byteStride":8},{"buffer":0,"byteOffset":4096,"byteLength":384,"target":34963},{"buffer":0,"byteOffset":4480,"byteLength":960,"target":34962,"byteStride":12},{"buffer":0,"byteOffset":5440,"byteLength":960,"target":34962,"byteStride":12},{"buffer":0,"byteOffset":6400,"byteLength":640,"target":34962,"byteStride":8},{"buffer":0,"byteOffset":7040,"byteLength":192,"target":34963}],"buffers":[{"byteLength":7232,"uri":"data:application/octet-stream;base64,"}],"accessors":[{"bufferView":0,"componentType":5126,"count":128,"max":[0.125,0.5,0.125],"min":[-0.125,0,-0.125],"type":"VEC3"},{"bufferView":1,"componentType":5126,"count":128,"max":[0.9999469518661499,1,0.9999469518661499],"min":[-0.9999469518661499,-1,-0.9999469518661499],"type":"VEC3"},{"bufferView":2,"componentType":5126,"count":128,"max":[0.11469999700784683,0.5],"min":[0,0],"type":"VEC2"},{"bufferView":3,"componentType":5123,"count":192,"max":[127],"min":[0],"type":"SCALAR"},{"bufferView":4,"componentType":5126,"count":80,"max":[0.046875,1.1875,0.046875],"min":[-0.046875,-0.6875,-0.046875],"type":"VEC3"},{"bufferView":5,"componentType":5126,"count":80,"max":[1,1,1],"min":[-1,-1,-1],"type":"VEC3"},{"bufferView":6,"componentType":5126,"count":80,"max":[0.5625,0.6875],"min":[0,0],"type":"VEC2"},{"bufferView":7,"componentType":5123,"count":96,"max":[79],"min":[0],"type":"SCALAR"}],"materials":[{"pbrMetallicRoughness":{"metallicFactor":0,"roughnessFactor":1,"baseColorTexture":{"index":0}},"alphaMode":"MASK","alphaCutoff":0.05}],"textures":[{"sampler":0,"source":0,"name":"Black.png"}],"samplers":[{"magFilter":9728,"minFilter":9728,"wrapS":33071,"wrapT":33071}],"images":[{"mimeType":"image/png","uri":"data:image/png;base64,"}],"meshes":[{"primitives":[{"mode":4,"attributes":{"POSITION":0,"NORMAL":1,"TEXCOORD_0":2},"indices":3,"material":0}]},{"primitives":[{"mode":4,"attributes":{"POSITION":4,"NORMAL":5,"TEXCOORD_0":6},"indices":7,"material":0}]}]}