{"asset":{"version":"2.0","generator":"Blockbench 4.10.4 glTF exporter"},"scenes":[{"nodes":[13],"name":"blockbench_export"}],"scene":0,"nodes":[{"translation":[0,0.0154245,0],"name":"Crate","mesh":0},{"translation":[0,0.0154245,0.20625000000000002],"name":"Crate","mesh":1},{"translation":[0,0.0154245,-0.21875000000000003],"name":"Crate","mesh":2},{"translation":[0,0.1904245,-0.08749999999999995],"name":"Crate","mesh":3},{"rotation":[0,-0.3007057995042731,0,0.9537169507482269],"translation":[-0.08750000000000002,0.1904245,0.28125],"name":"Crate","mesh":4},{"rotation":[0,0.4422886902190013,0,0.8968727415326883],"translation":[-0.14374999999999993,0.015424499999999997,0.3749999999999998],"name":"Crate","mesh":5},{"rotation":[0,0.4422886902190013,0,0.8968727415326883],"translation":[-0.14374999999999993,0.015424499999999997,-0.3875000000000003],"name":"Crate","mesh":6},{"rotation":[0,-0.2376858923261731,0,0.9713420698132614],"translation":[-0.10625,0.1904245,-0.32499999999999973],"name":"Crate","mesh":7},{"rotation":[-0.6941152380128955,-0.13492233454214728,-0.1349223345421473,0.694115238012893],"translation":[0.062499999999999896,0.2529245000000001,0.4687499999999999],"name":"Crate","mesh":8},{"rotation":[0,0.10886687485196442,0,0.9940563382223196],"translation":[-0.08750000000000002,0.3716744999999999,-0.18125000000000005],"name":"Crate","mesh":9},{"rotation":[0,0.08715574274765832,0,0.9961946980917455],"translation":[-0.14374999999999993,0.3654245000000001,0.22499999999999973],"name":"Crate","mesh":10},{"rotation":[0,0.08715574274765832,0,0.9961946980917455],"translation":[-0.19999999999999993,0.021674500000000096,-0.1187500000000003],"name":"Crate","mesh":11},{"rotation":[0,-0.300705799504273,0,0.9537169507482269],"translation":[-0.22499999999999995,0.021674500000000096,0.1312499999999997],"name":"Crate","mesh":12},{"children":[0,1,2,3,4,5,6,7,8,9,10,11,12]}],"bufferViews":[{"buffer":0,"byteOffset":0,"byteLength":3744,"target":34962,"byteStride":12},{"buffer":0,"byteOffset":3744,"byteLength":3744,"target":34962,"byteStride":12},{"buffer":0,"byteOffset":7488,"byteLength":2496,"target":34962,"byteStride":8},{"buffer":0,"byteOffset":9984,"byteLength":936,"target":34963},{"buffer":0,"byteOffset":10920,"byteLength":3744,"target":34962,"byteStride":12},{"buffer":0,"byteOffset":14664,"byteLength":3744,"target":34962,"byteStride":12},{"buffer":0,"byteOffset":18408,"byteLength":2496,"target":34962,"byteStride":8},{"buffer":0,"byteOffset":20904,"byteLength":936,"target":34963},{"buffer":0,"byteOffset":21840,"byteLength":3744,"target":34962,"byteStride":12},{"buffer":0,"byteOffset":25584,"byteLength":3744,"target":34962,"byteStride":12},{"buffer":0,"byteOffset":29328,"byteLength":2496,"target":34962,"byteStride":8},{"buffer":0,"byteOffset":31824,"byteLength":936,"target":34963},{"buffer":0,"byteOffset":32760,"byteLength":3744,"target":34962,"byteStride":12},{"buffer":0,"byteOffset":36504,"byteLength":3744,"target":34962,"byteStride":12},{"buffer":0,"byteOffset":40248,"byteLength":2496,"target":34962,"byteStride":8},{"buffer":0,"byteOffset":42744,"byteLength":936,"target":34963},{"buffer":0,"byteOffset":43680,"byteLength":3744,"target":34962,"byteStride":12},{"buffer":0,"byteOffset":47424,"byteLength":3744,"target":34962,"byteStride":12},{"buffer":0,"byteOffset":51168,"byteLength":2496,"target":34962,"byteStride":8},{"buffer":0,"byteOffset":53664,"byteLength":936,"target":34963},{"buffer":0,"byteOffset":54600,"byteLength":3744,"target":34962,"byteStride":12},{"buffer":0,"byteOffset":58344,"byteLength":3744,"target":34962,"byteStride":12},{"buffer":0,"byteOffset":62088,"byteLength":2496,"target":34962,"byteStride":8},{"buffer":0,"byteOffset":64584,"byteLength":936,"target":34963},{"buffer":0,"byteOffset":65520,"byteLength":3744,"target":34962,"byteStride":12},{"buffer":0,"byteOffset":69264,"byteLength":3744,"target":34962,"byteStride":12},{"buffer":0,"byteOffset":73008,"byteLength":2496,"target":34962,"byteStride":8},{"buffer":0,"byteOffset":75504,"byteLength":936,"target":34963},{"buffer":0,"byteOffset":76440,"byteLength":3744,"target":34962,"byteStride":12},{"buffer":0,"byteOffset":80184,"byteLength":3744,"target":34962,"byteStride":12},{"buffer":0,"byteOffset":83928,"byteLength":2496,"target":34962,"byteStride":8},{"buffer":0,"byteOffset":86424,"byteLength":936,"target":34963},{"buffer":0,"byteOffset":87360,"byteLength":3744,"target":34962,"byteStride":12},{"buffer":0,"byteOffset":91104,"byteLength":3744,"target":34962,"byteStride":12},{"buffer":0,"byteOffset":94848,"byteLength":2496,"target":34962,"byteStride":8},{"buffer":0,"byteOffset":97344,"byteLength":936,"target":34963},{"buffer":0,"byteOffset":98280,"byteLength":3744,"target":34962,"byteStride":12},{"buffer":0,"byteOffset":102024,"byteLength":3744,"target":34962,"byteStride":12},{"buffer":0,"byteOffset":105768,"byteLength":2496,"target":34962,"byteStride":8},{"buffer":0,"byteOffset":108264,"byteLength":936,"target":34963},{"buffer":0,"byteOffset":109200,"byteLength":3744,"target":34962,"byteStride":12},{"buffer":0,"byteOffset":112944,"byteLength":3744,"target":34962,"byteStride":12},{"buffer":0,"byteOffset":116688,"byteLength":2496,"target":34962,"byteStride":8},{"buffer":0,"byteOffset":119184,"byteLength":936,"target":34963},{"buffer":0,"byteOffset":120120,"byteLength":3744,"target":34962,"byteStride":12},{"buffer":0,"byteOffset":123864,"byteLength":3744,"target":34962,"byteStride":12},{"buffer":0,"byteOffset":127608,"byteLength":2496,"target":34962,"byteStride":8},{"buffer":0,"byteOffset":130104,"byteLength":936,"target":34963},{"buffer":0,"byteOffset":131040,"byteLength":3744,"target":34962,"byteStride":12},{"buffer":0,"byteOffset":134784,"byteLength":3744,"target":34962,"byteStride":12},{"buffer":0,"byteOffset":138528,"byteLength":2496,"target":34962,"byteStride":8},{"buffer":0,"byteOffset":141024,"byteLength":936,"target":34963}],"buffers":[{"byteLength":141960,"uri":"data:application/octet-stream;base64,"}],"accessors":[{"bufferView":0,"componentType":5126,"count":312,"max":[0.08888368308544159,0.16583265364170074,0.09273980557918549],"min":[-0.08888368308544159,-0.011587655171751976,-0.08871015906333923],"type":"VEC3"},{"bufferView":1,"componentType":5126,"count":312,"max":[1,1,1],"min":[-1,-1,-1],"type":"VEC3"},{"bufferView":2,"componentType":5126,"count":312,"max":[0.125,0.125],"min":[0,0],"type":"VEC2"},{"bufferView":3,"componentType":5123,"count":468,"max":[311],"min":[0],"type":"SCALAR"},{"bufferView":4,"componentType":5126,"count":312,"max":[0.08888368308544159,0.16583265364170074,0.09273980557918549],"min":[-0.08888368308544159,-0.011587655171751976,-0.08871015906333923],"type":"VEC3"},{"bufferView":5,"componentType":5126,"count":312,"max":[1,1,1],"min":[-1,-1,-1],"type":"VEC3"},{"bufferView":6,"componentType":5126,"count":312,"max":[0.125,0.125],"min":[0,0],"type":"VEC2"},{"bufferView":7,"componentType":5123,"count":468,"max":[311],"min":[0],"type":"SCALAR"},{"bufferView":8,"componentType":5126,"count":312,"max":[0.08888368308544159,0.16583265364170074,0.09273980557918549],"min":[-0.08888368308544159,-0.011587655171751976,-0.08871015906333923],"type":"VEC3"},{"bufferView":9,"componentType":5126,"count":312,"max":[1,1,1],"min":[-1,-1,-1],"type":"VEC3"},{"bufferView":10,"componentType":5126,"count":312,"max":[0.125,0.125],"min":[0,0],"type":"VEC2"},{"bufferView":11,"componentType":5123,"count":468,"max":[311],"min":[0],"type":"SCALAR"},{"bufferView":12,"componentType":5126,"count":312,"max":[0.09513368457555771,0.16583265364170074,0.09273980557918549],"min":[-0.09513368457555771,-0.011587655171751976,-0.08871015906333923],"type":"VEC3"},{"bufferView":13,"componentType":5126,"count":312,"max":[1,1,1],"min":[-1,-1,-1],"type":"VEC3"},{"bufferView":14,"componentType":5126,"count":312,"max":[0.125,0.125],"min":[0,0],"type":"VEC2"},{"bufferView":15,"componentType":5123,"count":468,"max":[311],"min":[0],"type":"SCALAR"},{"bufferView":16,"componentType":5126,"count":312,"max":[0.09513368457555771,0.16583265364170074,0.2552398145198822],"min":[-0.09513368457555771,-0.011587655171751976,-0.25121015310287476],"type":"VEC3"},{"bufferView":17,"componentType":5126,"count":312,"max":[1,1,1],"min":[-1,-1,-1],"type":"VEC3"},{"bufferView":18,"componentType":5126,"count":312,"max":[0.125,0.125],"min":[0,0],"type":"VEC2"},{"bufferView":19,"componentType":5123,"count":468,"max":[311],"min":[0],"type":"SCALAR"},{"bufferView":20,"componentType":5126,"count":312,"max":[0.09513368457555771,0.16583265364170074,0.09273980557918549],"min":[-0.09513368457555771,-0.011587655171751976,-0.08871015906333923],"type":"VEC3"},{"bufferView":21,"componentType":5126,"count":312,"max":[1,1,1],"min":[-1,-1,-1],"type":"VEC3"},{"bufferView":22,"componentType":5126,"count":312,"max":[0.125,0.125],"min":[0,0],"type":"VEC2"},{"bufferView":23,"componentType":5123,"count":468,"max":[311],"min":[0],"type":"SCALAR"},{"bufferView":24,"componentType":5126,"count":312,"max":[0.09513368457555771,0.16583265364170074,0.09273980557918549],"min":[-0.09513368457555771,-0.011587655171751976,-0.08871015906333923],"type":"VEC3"},{"bufferView":25,"componentType":5126,"count":312,"max":[1,1,1],"min":[-1,-1,-1],"type":"VEC3"},{"bufferView":26,"componentType":5126,"count":312,"max":[0.125,0.125],"min":[0,0],"type":"VEC2"},{"bufferView":27,"componentType":5123,"count":468,"max":[311],"min":[0],"type":"SCALAR"},{"bufferView":28,"componentType":5126,"count":312,"max":[0.09513368457555771,0.16583265364170074,0.09273980557918549],"min":[-0.09513368457555771,-0.011587655171751976,-0.08871015906333923],"type":"VEC3"},{"bufferView":29,"componentType":5126,"count":312,"max":[1,1,1],"min":[-1,-1,-1],"type":"VEC3"},{"bufferView":30,"componentType":5126,"count":312,"max":[0.125,0.125],"min":[0,0],"type":"VEC2"},{"bufferView":31,"componentType":5123,"count":468,"max":[311],"min":[0],"type":"SCALAR"},{"bufferView":32,"componentType":5126,"count":312,"max":[0.09513368457555771,0.16583265364170074,0.2552398145198822],"min":[-0.09513368457555771,-0.011587655171751976,-0.25121015310287476],"type":"VEC3"},{"bufferView":33,"componentType":5126,"count":312,"max":[1,1,1],"min":[-1,-1,-1],"type":"VEC3"},{"bufferView":34,"componentType":5126,"count":312,"max":[0.125,0.125],"min":[0,0],"type":"VEC2"},{"bufferView":35,"componentType":5123,"count":468,"max":[311],"min":[0],"type":"SCALAR"},{"bufferView":36,"componentType":5126,"count":312,"max":[0.09513368457555771,0.16583265364170074,0.2552398145198822],"min":[-0.09513368457555771,-0.011587655171751976,-0.25121015310287476],"type":"VEC3"},{"bufferView":37,"componentType":5126,"count":312,"max":[1,1,1],"min":[-1,-1,-1],"type":"VEC3"},{"bufferView":38,"componentType":5126,"count":312,"max":[0.125,0.125],"min":[0,0],"type":"VEC2"},{"bufferView":39,"componentType":5123,"count":468,"max":[311],"min":[0],"type":"SCALAR"},{"bufferView":40,"componentType":5126,"count":312,"max":[0.09513368457555771,0.16583265364170074,0.09273980557918549],"min":[-0.09513368457555771,-0.011587655171751976,-0.08871015906333923],"type":"VEC3"},{"bufferView":41,"componentType":5126,"count":312,"max":[1,1,1],"min":[-1,-1,-1],"type":"VEC3"},{"bufferView":42,"componentType":5126,"count":312,"max":[0.125,0.125],"min":[0,0],"type":"VEC2"},{"bufferView":43,"componentType":5123,"count":468,"max":[311],"min":[0],"type":"SCALAR"},{"bufferView":44,"componentType":5126,"count":312,"max":[0.09513368457555771,0.16583265364170074,0.09273980557918549],"min":[-0.09513368457555771,-0.011587655171751976,-0.08871015906333923],"type":"VEC3"},{"bufferView":45,"componentType":5126,"count":312,"max":[1,1,1],"min":[-1,-1,-1],"type":"VEC3"},{"bufferView":46,"componentType":5126,"count":312,"max":[0.125,0.125],"min":[0,0],"type":"VEC2"},{"bufferView":47,"componentType":5123,"count":468,"max":[311],"min":[0],"type":"SCALAR"},{"bufferView":48,"componentType":5126,"count":312,"max":[0.09513368457555771,0.16583265364170074,0.09273980557918549],"min":[-0.09513368457555771,-0.011587655171751976,-0.08871015906333923],"type":"VEC3"},{"bufferView":49,"componentType":5126,"count":312,"max":[1,1,1],"min":[-1,-1,-1],"type":"VEC3"},{"bufferView":50,"componentType":5126,"count":312,"max":[0.125,0.125],"min":[0,0],"type":"VEC2"},{"bufferView":51,"componentType":5123,"count":468,"max":[311],"min":[0],"type":"SCALAR"}],"materials":[{"pbrMetallicRoughness":{"metallicFactor":0,"roughnessFactor":1,"baseColorTexture":{"index":0}},"alphaMode":"MASK","alphaCutoff":0.05}],"textures":[{"sampler":0,"source":0,"name":"Wood.png"}],"samplers":[{"magFilter":9728,"minFilter":9728,"wrapS":33071,"wrapT":33071}],"images":[{"mimeType":"image/png","uri":"data:image/png;base64,"}],"meshes":[{"primitives":[{"mode":4,"attributes":{"POSITION":0,"NORMAL":1,"TEXCOORD_0":2},"indices":3,"material":0}]},{"primitives":[{"mode":4,"attributes":{"POSITION":4,"NORMAL":5,"TEXCOORD_0":6},"indices":7,"material":0}]},{"primitives":[{"mode":4,"attributes":{"POSITION":8,"NORMAL":9,"TEXCOORD_0":10},"indices":11,"material":0}]},{"primitives":[{"mode":4,"attributes":{"POSITION":12,"NORMAL":13,"TEXCOORD_0":14},"indices":15,"material":0}]},{"primitives":[{"mode":4,"attributes":{"POSITION":16,"NORMAL":17,"TEXCOORD_0":18},"indices":19,"material":0}]},{"primitives":[{"mode":4,"attributes":{"POSITION":20,"NORMAL":21,"TEXCOORD_0":22},"indices":23,"material":0}]},{"primitives":[{"mode":4,"attributes":{"POSITION":24,"NORMAL":25,"TEXCOORD_0":26},"indices":27,"material":0}]},{"primitives":[{"mode":4,"attributes":{"POSITION":28,"NORMAL":29,"TEXCOORD_0":30},"indices":31,"material":0}]},{"primitives":[{"mode":4,"attributes":{"POSITION":32,"NORMAL":33,"TEXCOORD_0":34},"indices":35,"material":0}]},{"primitives":[{"mode":4,"attributes":{"POSITION":36,"NORMAL":37,"TEXCOORD_0":38},"indices":39,"material":0}]},{"primitives":[{"mode":4,"attributes":{"POSITION":40,"NORMAL":41,"TEXCOORD_0":42},"indices":43,"material":0}]},{"primitives":[{"mode":4,"attributes":{"POSITION":44,"NORMAL":45,"TEXCOORD_0":46},"indices":47,"material":0}]},{"primitives":[{"mode":4,"attributes":{"POSITION":48,"NORMAL":49,"TEXCOORD_0":50},"indices":51,"material":0}]}]}