{"asset":{"version":"2.0","generator":"Blockbench 4.10.4 glTF exporter"},"scenes":[{"nodes":[1],"name":"blockbench_export"}],"scene":0,"nodes":[{"translation":[-7,0.375,-4.5],"name":"level1-col","mesh":0},{"children":[0]}],"bufferViews":[{"buffer":0,"byteOffset":0,"byteLength":92736,"target":34962,"byteStride":12},{"buffer":0,"byteOffset":92736,"byteLength":92736,"target":34962,"byteStride":12},{"buffer":0,"byteOffset":185472,"byteLength":61824,"target":34962,"byteStride":8},{"buffer":0,"byteOffset":247296,"byteLength":22752,"target":34963}],"buffers":[{"byteLength":270048,"uri":"data:application/octet-stream;base64,"}],"accessors":[{"bufferView":0,"componentType":5126,"count":7728,"max":[8.625,5.875,10.1875],"min":[-9.75,-0.5,-5.0625],"type":"VEC3"},{"bufferView":1,"componentType":5126,"count":7728,"max":[1,1,1],"min":[-1,-1,-1],"type":"VEC3"},{"bufferView":2,"componentType":5126,"count":7728,"max":[2.5,1.5],"min":[0,0],"type":"VEC2"},{"bufferView":3,"componentType":5123,"count":11376,"max":[7727],"min":[0],"type":"SCALAR"}],"materials":[{"pbrMetallicRoughness":{"metallicFactor":0,"roughnessFactor":1},"alphaMode":"MASK","alphaCutoff":0.05}],"meshes":[{"primitives":[{"mode":4,"attributes":{"POSITION":0,"NORMAL":1,"TEXCOORD_0":2},"indices":3,"material":0}]}]}