{"asset":{"version":"2.0","generator":"Blockbench 4.10.4 glTF exporter"},"scenes":[{"nodes":[7],"name":"blockbench_export"}],"scene":0,"nodes":[{"translation":[0,-0.20593,0],"name":"cuboid","mesh":0},{"translation":[1.0625,-0.20593,0],"name":"cuboid","mesh":1},{"translation":[-1,-0.76843,0],"name":"cuboid","mesh":2},{"translation":[-1,0.20032000000000005,0],"name":"cuboid","mesh":3},{"rotation":[-0.21263110804324445,0.6743797160099188,0.21263111189994877,0.674379730403335],"translation":[-2.2375000000000007,-6.938893903907228e-17,0.0625],"name":"cuboid","mesh":4},{"rotation":[-0.21263110804324445,0.6743797160099188,0.21263111189994877,0.674379730403335],"translation":[2.4499999999999993,2,0.0625],"name":"cuboid","mesh":5},{"translation":[0,-0.1125,-0.125],"name":"PALETTE","children":[4,5]},{"children":[0,1,2,3,6]}],"bufferViews":[{"buffer":0,"byteOffset":0,"byteLength":3744,"target":34962,"byteStride":12},{"buffer":0,"byteOffset":3744,"byteLength":3744,"target":34962,"byteStride":12},{"buffer":0,"byteOffset":7488,"byteLength":2496,"target":34962,"byteStride":8},{"buffer":0,"byteOffset":9984,"byteLength":936,"target":34963},{"buffer":0,"byteOffset":10920,"byteLength":3744,"target":34962,"byteStride":12},{"buffer":0,"byteOffset":14664,"byteLength":3744,"target":34962,"byteStride":12},{"buffer":0,"byteOffset":18408,"byteLength":2496,"target":34962,"byteStride":8},{"buffer":0,"byteOffset":20904,"byteLength":936,"target":34963},{"buffer":0,"byteOffset":21840,"byteLength":3744,"target":34962,"byteStride":12},{"buffer":0,"byteOffset":25584,"byteLength":3744,"target":34962,"byteStride":12},{"buffer":0,"byteOffset":29328,"byteLength":2496,"target":34962,"byteStride":8},{"buffer":0,"byteOffset":31824,"byteLength":936,"target":34963},{"buffer":0,"byteOffset":32760,"byteLength":3744,"target":34962,"byteStride":12},{"buffer":0,"byteOffset":36504,"byteLength":3744,"target":34962,"byteStride":12},{"buffer":0,"byteOffset":40248,"byteLength":2496,"target":34962,"byteStride":8},{"buffer":0,"byteOffset":42744,"byteLength":936,"target":34963},{"buffer":0,"byteOffset":43680,"byteLength":5760,"target":34962,"byteStride":12},{"buffer":0,"byteOffset":49440,"byteLength":5760,"target":34962,"byteStride":12},{"buffer":0,"byteOffset":55200,"byteLength":3840,"target":34962,"byteStride":8},{"buffer":0,"byteOffset":59040,"byteLength":1440,"target":34963},{"buffer":0,"byteOffset":60480,"byteLength":5760,"target":34962,"byteStride":12},{"buffer":0,"byteOffset":66240,"byteLength":5760,"target":34962,"byteStride":12},{"buffer":0,"byteOffset":72000,"byteLength":3840,"target":34962,"byteStride":8},{"buffer":0,"byteOffset":75840,"byteLength":1440,"target":34963}],"buffers":[{"byteLength":77280,"uri":"data:application/octet-stream;base64,"}],"accessors":[{"bufferView":0,"componentType":5126,"count":312,"max":[0.5039533972740173,1.2425576448440552,0.5149708986282349],"min":[-0.5039533972740173,-0.801857590675354,-0.5034576058387756],"type":"VEC3"},{"bufferView":1,"componentType":5126,"count":312,"max":[1,1,1],"min":[-1,-1,-1],"type":"VEC3"},{"bufferView":2,"componentType":5126,"count":312,"max":[0.125,0.125],"min":[0,0],"type":"VEC2"},{"bufferView":3,"componentType":5123,"count":468,"max":[311],"min":[0],"type":"SCALAR"},{"bufferView":4,"componentType":5126,"count":312,"max":[0.5039533972740173,1.2425576448440552,0.5149708986282349],"min":[-0.5039533972740173,-0.801857590675354,-0.5034576058387756],"type":"VEC3"},{"bufferView":5,"componentType":5126,"count":312,"max":[1,1,1],"min":[-1,-1,-1],"type":"VEC3"},{"bufferView":6,"componentType":5126,"count":312,"max":[0.125,0.125],"min":[0,0],"type":"VEC2"},{"bufferView":7,"componentType":5123,"count":468,"max":[311],"min":[0],"type":"SCALAR"},{"bufferView":8,"componentType":5126,"count":312,"max":[0.5039533972740173,0.7050575613975525,0.5149708986282349],"min":[-0.5039533972740173,-0.2643575966358185,-0.5034576058387756],"type":"VEC3"},{"bufferView":9,"componentType":5126,"count":312,"max":[1,1,1],"min":[-1,-1,-1],"type":"VEC3"},{"bufferView":10,"componentType":5126,"count":312,"max":[0.125,0.125],"min":[0,0],"type":"VEC2"},{"bufferView":11,"componentType":5123,"count":468,"max":[311],"min":[0],"type":"SCALAR"},{"bufferView":12,"componentType":5126,"count":312,"max":[0.5039533972740173,0.7050575613975525,0.5149708986282349],"min":[-0.5039533972740173,-0.2643575966358185,-0.5034576058387756],"type":"VEC3"},{"bufferView":13,"componentType":5126,"count":312,"max":[1,1,1],"min":[-1,-1,-1],"type":"VEC3"},{"bufferView":14,"componentType":5126,"count":312,"max":[0.125,0.125],"min":[0,0],"type":"VEC2"},{"bufferView":15,"componentType":5123,"count":468,"max":[311],"min":[0],"type":"SCALAR"},{"bufferView":16,"componentType":5126,"count":480,"max":[0.7124999761581421,0.28125,0.925000011920929],"min":[-0.7124999761581421,-0.03125,-1.4249999523162842],"type":"VEC3"},{"bufferView":17,"componentType":5126,"count":480,"max":[1,1,1],"min":[-1,-1,-1],"type":"VEC3"},{"bufferView":18,"componentType":5126,"count":480,"max":[0.546875,0.546875],"min":[0,0],"type":"VEC2"},{"bufferView":19,"componentType":5123,"count":720,"max":[479],"min":[0],"type":"SCALAR"},{"bufferView":20,"componentType":5126,"count":480,"max":[0.7124999761581421,0.28125,0.925000011920929],"min":[-0.7124999761581421,-0.03125,-1.4249999523162842],"type":"VEC3"},{"bufferView":21,"componentType":5126,"count":480,"max":[1,1,1],"min":[-1,-1,-1],"type":"VEC3"},{"bufferView":22,"componentType":5126,"count":480,"max":[0.546875,0.546875],"min":[0,0],"type":"VEC2"},{"bufferView":23,"componentType":5123,"count":720,"max":[479],"min":[0],"type":"SCALAR"}],"materials":[{"pbrMetallicRoughness":{"metallicFactor":0,"roughnessFactor":1,"baseColorTexture":{"index":0}},"alphaMode":"MASK","alphaCutoff":0.05,"doubleSided":true},{"pbrMetallicRoughness":{"metallicFactor":0,"roughnessFactor":1,"baseColorTexture":{"index":1}},"alphaMode":"MASK","alphaCutoff":0.05,"doubleSided":true}],"textures":[{"sampler":0,"source":0,"name":"Wood.png"},{"sampler":1,"source":1,"name":"texture.png"}],"samplers":[{"magFilter":9728,"minFilter":9728,"wrapS":33071,"wrapT":33071},{"magFilter":9728,"minFilter":9728,"wrapS":33071,"wrapT":33071}],"images":[{"mimeType":"image/png","uri":"data:image/png;base64,"},{"mimeType":"image/png","uri":"data:image/png;base64,"}],"meshes":[{"primitives":[{"mode":4,"attributes":{"POSITION":0,"NORMAL":1,"TEXCOORD_0":2},"indices":3,"material":0}]},{"primitives":[{"mode":4,"attributes":{"POSITION":4,"NORMAL":5,"TEXCOORD_0":6},"indices":7,"material":0}]},{"primitives":[{"mode":4,"attributes":{"POSITION":8,"NORMAL":9,"TEXCOORD_0":10},"indices":11,"material":0}]},{"primitives":[{"mode":4,"attributes":{"POSITION":12,"NORMAL":13,"TEXCOORD_0":14},"indices":15,"material":0}]},{"primitives":[{"mode":4,"attributes":{"POSITION":16,"NORMAL":17,"TEXCOORD_0":18},"indices":19,"material":1}]},{"primitives":[{"mode":4,"attributes":{"POSITION":20,"NORMAL":21,"TEXCOORD_0":22},"indices":23,"material":1}]}]}