{"asset":{"version":"2.0","generator":"Blockbench 4.10.4 glTF exporter"},"scenes":[{"nodes":[1],"name":"blockbench_export"}],"scene":0,"nodes":[{"name":"plane","mesh":0},{"children":[0]}],"bufferViews":[{"buffer":0,"byteOffset":0,"byteLength":828,"target":34962,"byteStride":12},{"buffer":0,"byteOffset":828,"byteLength":828,"target":34962,"byteStride":12},{"buffer":0,"byteOffset":1656,"byteLength":552,"target":34962,"byteStride":8},{"buffer":0,"byteOffset":2208,"byteLength":188,"target":34963}],"buffers":[{"byteLength":2396,"uri":"data:application/octet-stream;base64,"}],"accessors":[{"bufferView":0,"componentType":5126,"count":69,"max":[0.625,0.0625,0.125],"min":[-0.625,-4.440892098500626e-16,-0.125],"type":"VEC3"},{"bufferView":1,"componentType":5126,"count":69,"max":[0.7511619925498962,1,1],"min":[-1,-4.016309210392883e-15,-1],"type":"VEC3"},{"bufferView":2,"componentType":5126,"count":69,"max":[0.48046883940696716,0.1484375],"min":[0.24218739569187164,0.001953125],"type":"VEC2"},{"bufferView":3,"componentType":5123,"count":93,"max":[68],"min":[0],"type":"SCALAR"}],"materials":[{"pbrMetallicRoughness":{"metallicFactor":0,"roughnessFactor":1,"baseColorTexture":{"index":0}},"alphaMode":"MASK","alphaCutoff":0.05}],"textures":[{"sampler":0,"source":0,"name":"BookcaseBack.png"}],"samplers":[{"magFilter":9728,"minFilter":9728,"wrapS":33071,"wrapT":33071}],"images":[{"mimeType":"image/png","uri":"data:image/png;base64,"}],"meshes":[{"primitives":[{"mode":4,"attributes":{"POSITION":0,"NORMAL":1,"TEXCOORD_0":2},"indices":3,"material":0}]}]}