<svg width="256" height="256" viewBox="0 0 256 256" fill="none" xmlns="http://www.w3.org/2000/svg">
<g clip-path="url(#clip0_90_233)">
<rect width="256" height="256" rx="10" fill="#1E1E1E"/>
<path opacity="0.5" d="M118.323 189.378C124.519 192.964 132.16 192.964 138.356 189.378L202.822 152.075C209.001 148.5 212.805 141.902 212.805 134.764V60.0794C212.805 52.941 209.001 46.3438 202.822 42.7686L138.356 5.46532C132.16 1.87965 124.519 1.87965 118.323 5.46532L53.8566 42.7686C47.6781 46.3438 43.8735 52.941 43.8735 60.0794V134.764C43.8735 141.902 47.6781 148.5 53.8566 152.075L118.323 189.378Z" fill="white" fill-opacity="0.05"/>
<mask id="path-3-outside-1_90_233" maskUnits="userSpaceOnUse" x="100.613" y="103.695" width="56" height="157" fill="black">
<rect fill="white" x="100.613" y="103.695" width="56" height="157"/>
<path fill-rule="evenodd" clip-rule="evenodd" d="M104.613 134.435V148.196V215.579V229.341V240.222C104.613 242.005 105.562 243.652 107.104 244.547L125.831 255.408C127.382 256.308 129.297 256.308 130.848 255.408L149.574 244.547C151.117 243.652 152.066 242.005 152.066 240.222V229.341V215.579V148.242V134.435V123.596C152.066 121.815 151.119 120.169 149.579 119.274L130.836 108.373C129.283 107.47 127.366 107.469 125.812 108.371L107.103 119.229C105.562 120.123 104.613 121.771 104.613 123.553V134.435Z"/>
</mask>
<path fill-rule="evenodd" clip-rule="evenodd" d="M104.613 134.435V148.196V215.579V229.341V240.222C104.613 242.005 105.562 243.652 107.104 244.547L125.831 255.408C127.382 256.308 129.297 256.308 130.848 255.408L149.574 244.547C151.117 243.652 152.066 242.005 152.066 240.222V229.341V215.579V148.242V134.435V123.596C152.066 121.815 151.119 120.169 149.579 119.274L130.836 108.373C129.283 107.47 127.366 107.469 125.812 108.371L107.103 119.229C105.562 120.123 104.613 121.771 104.613 123.553V134.435Z" fill="#D9D9D9"/>
<path d="M107.103 119.229L105.095 115.769L107.103 119.229ZM125.812 108.371L123.804 104.911L125.812 108.371ZM149.579 119.274L147.569 122.731L149.579 119.274ZM149.574 244.547L151.581 248.007L149.574 244.547ZM125.831 255.408L123.824 258.868L125.831 255.408ZM130.848 255.408L132.855 258.868L130.848 255.408ZM107.104 244.547L105.098 248.007L107.104 244.547ZM108.613 148.196V134.435H100.613V148.196H108.613ZM108.613 215.579V148.196H100.613V215.579H108.613ZM100.613 215.579V229.341H108.613V215.579H100.613ZM100.613 229.341V240.222H108.613V229.341H100.613ZM105.098 248.007L123.824 258.868L127.838 251.948L109.111 241.087L105.098 248.007ZM132.855 258.868L151.581 248.007L147.568 241.087L128.841 251.948L132.855 258.868ZM156.066 240.222V229.341H148.066V240.222H156.066ZM156.066 229.341V215.579H148.066V229.341H156.066ZM148.066 148.242V215.579H156.066V148.242H148.066ZM148.066 134.435V148.242H156.066V134.435H148.066ZM148.066 123.596V134.435H156.066V123.596H148.066ZM128.825 111.831L147.569 122.731L151.59 115.816L132.847 104.915L128.825 111.831ZM109.111 122.688L127.82 111.83L123.804 104.911L105.095 115.769L109.111 122.688ZM108.613 134.435V123.553H100.613V134.435H108.613ZM105.095 115.769C102.321 117.379 100.613 120.345 100.613 123.553H108.613C108.613 123.197 108.803 122.867 109.111 122.688L105.095 115.769ZM132.847 104.915C130.052 103.29 126.6 103.288 123.804 104.911L127.82 111.83C128.131 111.65 128.514 111.65 128.825 111.831L132.847 104.915ZM156.066 123.596C156.066 120.39 154.361 117.427 151.59 115.816L147.569 122.731C147.876 122.91 148.066 123.24 148.066 123.596H156.066ZM151.581 248.007C154.357 246.397 156.066 243.431 156.066 240.222H148.066C148.066 240.578 147.876 240.908 147.568 241.087L151.581 248.007ZM123.824 258.868C126.616 260.488 130.062 260.488 132.855 258.868L128.841 251.948C128.531 252.128 128.148 252.128 127.838 251.948L123.824 258.868ZM100.613 240.222C100.613 243.431 102.322 246.397 105.098 248.007L109.111 241.087C108.803 240.908 108.613 240.578 108.613 240.222H100.613Z" fill="url(#paint0_linear_90_233)" mask="url(#path-3-outside-1_90_233)"/>
<path fill-rule="evenodd" clip-rule="evenodd" d="M104.613 123.553V134.435V148.196V215.579V229.341V240.222C104.613 242.004 105.562 243.652 107.104 244.547L125.831 255.408C127.382 256.308 129.297 256.308 130.848 255.408L149.574 244.547C151.117 243.652 152.066 242.004 152.066 240.222V229.341V215.579V148.242V134.435V123.596C152.066 121.815 151.119 120.169 149.579 119.273L130.836 108.373C129.283 107.47 127.366 107.469 125.812 108.37L107.103 119.228C105.562 120.123 104.613 121.771 104.613 123.553Z" fill="#8F6136"/>
<path fill-rule="evenodd" clip-rule="evenodd" d="M129.602 107.861L128.339 107.861V255.914H129.629C130.05 255.802 130.46 255.633 130.848 255.408L149.574 244.547C151.115 243.653 152.064 242.007 152.066 240.226C152.066 240.225 152.066 240.223 152.066 240.222V229.341V215.579V148.242V134.435V123.596C152.066 123.594 152.066 123.593 152.066 123.591C152.064 121.812 151.117 120.168 149.579 119.274L130.836 108.373C130.444 108.145 130.028 107.974 129.602 107.861Z" fill="#A78E53"/>
<path d="M125.831 159.553C127.382 160.453 129.297 160.453 130.848 159.554L149.574 148.692C151.117 147.798 152.066 146.15 152.066 144.367V122.605C152.066 120.822 151.117 119.174 149.574 118.28L130.848 107.418C129.297 106.518 127.382 106.518 125.831 107.418L107.104 118.28C105.562 119.174 104.613 120.822 104.613 122.605V144.367C104.613 146.15 105.562 147.798 107.104 148.692L125.831 159.553Z" fill="#ECDBB2"/>
<path fill-rule="evenodd" clip-rule="evenodd" d="M104.613 123.553V134.435V148.196V215.579V229.341V240.222C104.613 242.004 105.562 243.652 107.104 244.547L125.831 255.408C127.382 256.308 129.297 256.308 130.848 255.408L149.574 244.547C151.117 243.652 152.066 242.004 152.066 240.222V229.341V215.579V148.242V134.435V123.596C152.066 121.815 151.119 120.169 149.579 119.273L130.836 108.373C129.283 107.47 127.366 107.469 125.812 108.37L107.103 119.228C105.562 120.123 104.613 121.771 104.613 123.553Z" fill="url(#paint1_linear_90_233)" fill-opacity="0.15" style="mix-blend-mode:multiply"/>
<path fill-rule="evenodd" clip-rule="evenodd" d="M129.602 107.861L128.339 107.861V255.914H129.629C130.05 255.802 130.46 255.633 130.848 255.408L149.574 244.547C151.115 243.653 152.064 242.007 152.066 240.226C152.066 240.225 152.066 240.223 152.066 240.222V229.341V215.579V148.242V134.435V123.596C152.066 123.594 152.066 123.593 152.066 123.591C152.064 121.812 151.117 120.168 149.579 119.274L130.836 108.373C130.444 108.145 130.028 107.974 129.602 107.861Z" fill="url(#paint2_linear_90_233)" fill-opacity="0.15" style="mix-blend-mode:multiply"/>
<path d="M125.831 159.553C127.382 160.453 129.297 160.453 130.848 159.554L149.574 148.692C151.117 147.798 152.066 146.15 152.066 144.367V122.605C152.066 120.822 151.117 119.174 149.574 118.28L130.848 107.418C129.297 106.518 127.382 106.518 125.831 107.418L107.104 118.28C105.562 119.174 104.613 120.822 104.613 122.605V144.367C104.613 146.15 105.562 147.798 107.104 148.692L125.831 159.553Z" fill="url(#paint3_linear_90_233)" fill-opacity="0.15" style="mix-blend-mode:multiply"/>
<g filter="url(#filter0_d_90_233)">
<rect x="114.104" y="67.052" width="28.4717" height="60.7395" rx="14.2358" fill="white"/>
</g>
</g>
<defs>
<filter id="filter0_d_90_233" x="103.104" y="56.052" width="50.4717" height="82.7396" filterUnits="userSpaceOnUse" color-interpolation-filters="sRGB">
<feFlood flood-opacity="0" result="BackgroundImageFix"/>
<feColorMatrix in="SourceAlpha" type="matrix" values="0 0 0 0 0 0 0 0 0 0 0 0 0 0 0 0 0 0 127 0" result="hardAlpha"/>
<feMorphology radius="1" operator="dilate" in="SourceAlpha" result="effect1_dropShadow_90_233"/>
<feOffset/>
<feGaussianBlur stdDeviation="5"/>
<feComposite in2="hardAlpha" operator="out"/>
<feColorMatrix type="matrix" values="0 0 0 0 1 0 0 0 0 0.766667 0 0 0 0 0 0 0 0 1 0"/>
<feBlend mode="normal" in2="BackgroundImageFix" result="effect1_dropShadow_90_233"/>
<feBlend mode="normal" in="SourceGraphic" in2="effect1_dropShadow_90_233" result="shape"/>
</filter>
<linearGradient id="paint0_linear_90_233" x1="128.339" y1="107.695" x2="128.339" y2="256.083" gradientUnits="userSpaceOnUse">
<stop stop-color="#7C4417"/>
<stop offset="0.35" stop-color="#4C280C"/>
<stop offset="0.965" stop-color="#381D07"/>
</linearGradient>
<linearGradient id="paint1_linear_90_233" x1="128.339" y1="107.695" x2="128.339" y2="256.083" gradientUnits="userSpaceOnUse">
<stop stop-color="#FF3C00" stop-opacity="0"/>
<stop offset="1" stop-color="#FF5900"/>
</linearGradient>
<linearGradient id="paint2_linear_90_233" x1="140.203" y1="107.861" x2="140.203" y2="255.914" gradientUnits="userSpaceOnUse">
<stop stop-color="#FF3C00" stop-opacity="0"/>
<stop offset="1" stop-color="#FF5900"/>
</linearGradient>
<linearGradient id="paint3_linear_90_233" x1="128.339" y1="161.008" x2="128.339" y2="105.963" gradientUnits="userSpaceOnUse">
<stop stop-color="#FF3C00" stop-opacity="0"/>
<stop offset="1" stop-color="#FF5900"/>
</linearGradient>
<clipPath id="clip0_90_233">
<rect width="256" height="256" rx="10" fill="white"/>
</clipPath>
</defs>
</svg>
